# xmcd
# 
# Track frame offsets:
#     150
#     12633
#     23503
#     32885
#     41761
#     64312
#     75552
#     91178
#     104354
#     114406
#     123828
#     139291
#     148013
#     163972
# 
# Disc length: 2404
# 
# Revision: 4
# Processed by: cddbd v1.5.2PL0 Copyright (c) Steve Scherf et al.
# Submitted via: fre:ac v1.0.31
# 
DISCID=be09620e
DTITLE=Johnny Cash - Christmas As I Knew It
DYEAR=2006
DGENRE=Christmas
TTITLE0=Ringing The Bells For Jim
TTITLE1=Blue Christmas
TTITLE2=Christmas With You
TTITLE3=My God Is Real (Yes, God Is Real)
TTITLE4=The Christmas Spirit
TTITLE5=Hark! The Herald Angels Sing
TTITLE6=Silent Night, Holy Night
TTITLE7=Farther Along
TTITLE8=That Christmasy Feeling
TTITLE9=Amen
TTITLE10=Believe In Him
TTITLE11=Merry Christmas Mary
TTITLE12=The Gifts They Gave
TTITLE13=Christmas As I Knew It
EXTD=
EXTT0=
EXTT1=
EXTT2=
EXTT3=
EXTT4=
EXTT5=
EXTT6=
EXTT7=
EXTT8=
EXTT9=
EXTT10=
EXTT11=
EXTT12=
EXTT13=
PLAYORDER=
